<?xml version="1.0" standalone="no"?>
<!DOCTYPE svg PUBLIC "-//W3C//DTD SVG 20010904//EN"
 "http://www.w3.org/TR/2001/REC-SVG-20010904/DTD/svg10.dtd">
<svg version="1.0" xmlns="http://www.w3.org/2000/svg"
 width="800.000000pt" height="800.000000pt" viewBox="0 0 800.000000 800.000000"
 preserveAspectRatio="xMidYMid meet">

<g transform="translate(0.000000,800.000000) scale(0.100000,-0.100000)"
fill="#000000" stroke="none">
<path d="M3585 6101 c-74 -33 -140 -127 -199 -283 -59 -157 -131 -259 -209
-297 -39 -19 -61 -21 -235 -21 l-192 0 0 23 c0 80 -57 160 -143 198 -51 23
-59 24 -327 24 -266 0 -277 -1 -325 -23 -83 -39 -125 -92 -140 -179 -6 -38 -9
-42 -43 -48 -85 -16 -178 -88 -221 -172 -54 -107 -51 -32 -49 -1554 l3 -1404
22 -47 c30 -66 104 -141 166 -169 l52 -24 2255 0 2255 0 52 24 c62 28 136 103
166 169 l22 47 3 1395 c1 934 -1 1412 -8 1445 -24 114 -98 220 -186 265 l-49
25 -385 5 c-380 5 -385 5 -422 28 -88 54 -154 152 -229 335 -47 116 -101 192
-163 227 l-51 30 -690 0 c-646 0 -693 -2 -730 -19z m855 -926 c500 -75 904
-418 1061 -898 79 -241 80 -542 3 -795 -32 -106 -128 -296 -196 -387 -112
-150 -300 -310 -461 -392 -90 -45 -220 -91 -327 -114 -87 -20 -134 -24 -270
-23 -176 0 -262 12 -408 60 -459 150 -804 551 -887 1028 -19 112 -19 324 0
442 47 292 209 579 434 771 297 253 678 365 1051 308z"/>
</g>
</svg>
